<svg width="634" height="128" viewBox="0 0 634 128" fill="none" xmlns="http://www.w3.org/2000/svg">
<path d="M224.711 21.9978C223.483 19.3708 223.207 17.0193 223.885 14.9431C224.563 12.8246 225.855 11.3416 227.762 10.4942C229.711 9.64682 231.681 9.64682 233.673 10.4942C235.706 11.2993 237.189 13.0153 238.121 15.6422C238.588 16.9557 238.927 18.481 239.138 20.2182C239.35 21.913 239.583 23.5655 239.837 25.1756C240.134 26.7433 240.6 28.0567 241.236 29.116C241.914 30.1329 242.952 30.6413 244.35 30.6413C245.748 30.6413 246.786 30.1329 247.464 29.116C248.142 28.0567 248.608 26.7433 248.862 25.1756C249.159 23.5655 249.392 21.913 249.561 20.2182C249.773 18.481 250.112 16.9557 250.578 15.6422C251.553 13.0153 253.036 11.2993 255.027 10.4942C257.019 9.64682 258.989 9.64682 260.938 10.4942C262.845 11.3416 264.137 12.8246 264.815 14.9431C265.493 17.0193 265.217 19.3708 263.989 21.9978C263.353 23.3536 262.506 24.6459 261.446 25.8747C260.429 27.061 259.307 28.2898 258.078 29.5609C256.849 30.832 255.62 32.2514 254.392 33.8191C253.163 35.3444 252.04 37.1028 251.023 39.0942V49.9622C251.023 51.6994 250.388 53.14 249.117 54.284C247.845 55.428 246.257 56 244.35 56C242.486 56 240.897 55.428 239.583 54.284C238.312 53.14 237.677 51.6994 237.677 49.9622V39.0942C236.702 37.1028 235.6 35.3444 234.372 33.8191C233.143 32.2514 231.914 30.832 230.685 29.5609C229.457 28.2898 228.313 27.061 227.253 25.8747C226.194 24.6459 225.347 23.3536 224.711 21.9978ZM276.705 56.1271C271.747 56.1271 267.786 54.6653 264.82 51.7418C261.896 48.7759 260.434 44.6024 260.434 39.2213C260.434 35.9164 261.112 33.0141 262.468 30.5142C263.824 28.0144 265.71 26.0653 268.125 24.6671C270.582 23.2265 273.442 22.5062 276.705 22.5062C280.349 22.5062 283.378 23.2265 285.793 24.6671C288.208 26.0653 290.009 28.0144 291.195 30.5142C292.424 33.0141 293.038 35.9164 293.038 39.2213C293.038 44.6024 291.683 48.7759 288.971 51.7418C286.302 54.6653 282.213 56.1271 276.705 56.1271ZM267.998 38.1409C267.998 39.4544 268.654 40.3865 269.968 40.9373C271.281 41.4458 273.527 41.7 276.705 41.7C279.882 41.7 282.128 41.4458 283.442 40.9373C284.755 40.3865 285.412 39.4544 285.412 38.1409C285.412 36.8698 284.755 35.98 283.442 35.4716C282.128 34.9631 279.882 34.7089 276.705 34.7089C273.527 34.7089 271.281 34.9631 269.968 35.4716C268.654 35.98 267.998 36.8698 267.998 38.1409ZM305.677 56C302.711 56 300.296 54.8772 298.431 52.6316C296.567 50.3859 295.614 47.2293 295.571 43.1618L295.508 28.4804C295.508 26.6585 296.058 25.2391 297.16 24.2222C298.304 23.163 299.851 22.6333 301.8 22.6333C303.664 22.6333 305.168 23.163 306.312 24.2222C307.456 25.2391 308.028 26.6585 308.028 28.4804V41.7636C308.028 44.9413 309.278 46.5302 311.778 46.5302C313.007 46.5302 313.833 46.0853 314.257 45.1956C314.68 44.2634 314.892 43.077 314.892 41.6364V28.4804C314.892 26.828 315.464 25.451 316.608 24.3493C317.752 23.2053 319.235 22.6333 321.057 22.6333C322.964 22.6333 324.425 23.2053 325.442 24.3493C326.502 25.451 327.031 26.828 327.031 28.4804V49.3267C327.031 51.3604 326.565 52.9917 325.633 54.2204C324.743 55.4068 323.281 56 321.248 56C319.256 56 317.689 55.4068 316.545 54.2204C315.443 52.9917 314.892 51.3604 314.892 49.3267V48.2462H313.748C313.748 50.7037 313.007 52.6104 311.524 53.9662C310.083 55.3221 308.134 56 305.677 56ZM336.619 56C334.627 56 333.081 55.428 331.979 54.284C330.877 53.14 330.327 51.6994 330.327 49.9622V29.116C330.327 27.2941 330.877 25.7899 331.979 24.6036C333.081 23.3748 334.627 22.7604 336.619 22.7604C338.61 22.7604 340.135 23.3748 341.195 24.6036C342.254 25.7899 342.784 27.2517 342.784 28.9889V30.3236H343.991C344.161 28.0779 345.008 26.2348 346.533 24.7942C348.059 23.3536 349.859 22.6333 351.936 22.6333C354.012 22.6333 355.643 23.2689 356.829 24.54C358.058 25.8111 358.672 27.5059 358.672 29.6244C358.672 31.6159 358.1 33.2683 356.956 34.5818C355.812 35.8953 354.351 36.552 352.571 36.552C351.088 36.552 349.838 36.213 348.821 35.5351C347.847 34.8148 347.127 33.9886 346.66 33.0564C345.305 32.887 344.309 33.0353 343.673 33.5013C343.08 33.925 342.784 34.7936 342.784 36.1071V49.9622C342.784 51.6994 342.254 53.14 341.195 54.284C340.135 55.428 338.61 56 336.619 56ZM363.263 56.1857L363.758 54.6383L365.058 54.5145C367.204 54.3082 368.813 53.6686 369.886 52.5958C370.959 51.5229 371.929 50.3469 372.795 49.0678L399.038 11.1882L400.4 12.0547V48.944C400.4 50.0581 400.483 51.0072 400.648 51.7912C400.813 52.5752 401.205 53.1941 401.824 53.648C402.484 54.0606 403.557 54.3495 405.042 54.5145L406.218 54.6383L405.723 56.1857L396.748 56L387.774 56.1857L388.269 54.6383L389.569 54.5145C391.384 54.3082 392.787 53.8749 393.777 53.2147C394.809 52.5133 395.325 51.0484 395.325 48.8202V40.0312H381.151L374.838 49.1297C373.93 50.4501 373.476 51.5023 373.476 52.2863C373.476 53.5242 374.817 54.2669 377.499 54.5145L378.675 54.6383L378.18 56.1857L370.876 56L363.263 56.1857ZM382.265 38.4219H395.325V19.4821L382.265 38.4219ZM420.956 56.8665C417.614 56.8665 415.076 55.8968 413.343 53.9575C411.651 51.9768 410.805 49.4598 410.805 46.4063C410.805 43.8893 411.321 41.5166 412.353 39.2884C413.425 37.0602 414.849 35.1002 416.623 33.4084C418.398 31.6754 420.358 30.3343 422.503 29.3853C424.69 28.3949 426.898 27.8998 429.126 27.8998C431.189 27.8998 432.695 28.1886 433.644 28.7663C434.635 29.3027 435.274 29.9423 435.563 30.6851C435.893 31.3865 436.058 32.0055 436.058 32.5419C436.058 33.3259 435.831 34.0686 435.377 34.7701C434.924 35.4303 434.222 35.7604 433.273 35.7604C432.489 35.7604 431.87 35.5335 431.416 35.0796C430.962 34.6257 430.735 34.0274 430.735 33.2846C430.735 31.9642 430.694 30.9739 430.612 30.3137C430.529 29.6122 429.91 29.2615 428.755 29.2615C427.063 29.2615 425.433 29.7979 423.865 30.8707C422.297 31.9436 420.894 33.3672 419.656 35.1415C418.418 36.8745 417.428 38.7726 416.685 40.8358C415.984 42.8577 415.633 44.8589 415.633 46.8396C415.633 49.1503 416.128 51.1516 417.119 52.8434C418.109 54.4939 419.739 55.3192 422.008 55.3192C422.999 55.3192 424.009 55.0922 425.041 54.6383C426.073 54.1844 427.001 53.5448 427.826 52.7196C428.734 51.8531 429.539 50.8215 430.24 49.6248L431.354 50.4295C430.447 52.2038 429.126 53.7305 427.393 55.0097C425.701 56.2476 423.556 56.8665 420.956 56.8665ZM445.743 56.8665C443.804 56.8665 442.215 56.4745 440.977 55.6905C439.74 54.8653 438.832 53.7924 438.254 52.472C437.676 51.1103 437.388 49.6661 437.388 48.1394C437.388 45.5398 437.945 43.0227 439.059 40.5882C440.173 38.1537 441.617 35.9874 443.391 34.0893C445.207 32.1912 447.167 30.6851 449.271 29.5709C451.376 28.4568 453.439 27.8998 455.461 27.8998C457.359 27.8998 458.783 28.5187 459.732 29.7566C460.722 30.9945 461.3 32.5832 461.465 34.5225L463.569 28.7663H467.654L459.917 50.7389C459.752 51.3579 459.608 51.9149 459.484 52.4101C459.36 52.864 459.298 53.256 459.298 53.5861C459.298 54.4114 459.628 54.824 460.289 54.824C461.196 54.824 462.084 54.3495 462.95 53.4004C463.817 52.4514 464.518 51.5229 465.055 50.6152L466.169 51.3579C465.385 52.6371 464.374 53.8749 463.136 55.0716C461.898 56.2682 460.392 56.8665 458.617 56.8665C457.338 56.8665 456.431 56.5571 455.894 55.9381C455.399 55.3192 455.151 54.4939 455.151 53.4623C455.151 52.6783 455.275 51.7912 455.523 50.8008C454.161 52.6989 452.655 54.1844 451.004 55.2573C449.354 56.3301 447.6 56.8665 445.743 56.8665ZM446.362 55.2573C448.714 55.2573 450.922 54.1432 452.985 51.9149C455.048 49.6455 456.823 46.6745 458.308 43.0021L459.051 40.8977C459.752 38.8345 460.103 36.9364 460.103 35.2034C460.103 33.5116 459.752 32.1499 459.051 31.1183C458.349 30.0455 457.276 29.5091 455.832 29.5091C454.182 29.5091 452.531 30.1486 450.881 31.4278C449.271 32.6657 447.786 34.2956 446.424 36.3175C445.104 38.3394 444.031 40.5057 443.206 42.8164C442.422 45.0859 442.03 47.2728 442.03 49.3773C442.03 51.3166 442.422 52.7815 443.206 53.7718C443.99 54.7621 445.042 55.2573 446.362 55.2573ZM478.746 56.8665C476.806 56.8665 475.218 56.4745 473.98 55.6905C472.742 54.8653 471.834 53.7924 471.257 52.472C470.679 51.1103 470.39 49.6661 470.39 48.1394C470.39 45.5398 470.947 43.0227 472.061 40.5882C473.175 38.1537 474.62 35.9874 476.394 34.0893C478.209 32.1912 480.169 30.6851 482.274 29.5709C484.378 28.4568 486.441 27.8998 488.463 27.8998C490.279 27.8998 491.661 28.4568 492.61 29.5709C493.601 30.6851 494.199 32.1293 494.405 33.9036L499.604 17.9347C499.769 17.4808 499.873 17.0682 499.914 16.6968C499.996 16.2842 500.038 15.9335 500.038 15.6446C500.038 14.8606 499.811 14.3448 499.357 14.0973C498.944 13.8084 498.387 13.6434 497.686 13.6021C497.025 13.5608 496.303 13.5402 495.519 13.5402L495.953 12.0547L505.98 11.869L493.291 50.7389C493.126 51.3579 492.982 51.9149 492.858 52.4101C492.734 52.864 492.672 53.256 492.672 53.5861C492.672 54.4114 493.002 54.824 493.662 54.824C494.57 54.824 495.457 54.3495 496.324 53.4004C497.19 52.4514 497.892 51.5229 498.428 50.6152L499.542 51.3579C498.758 52.6371 497.748 53.8749 496.51 55.0716C495.272 56.2682 493.766 56.8665 491.991 56.8665C490.712 56.8665 489.804 56.5571 489.268 55.9381C488.773 55.3192 488.525 54.4939 488.525 53.4623C488.525 52.9259 488.587 52.3482 488.711 51.7293C488.835 51.1103 489 50.4914 489.206 49.8724C487.762 52.0594 486.153 53.7718 484.378 55.0097C482.645 56.2476 480.768 56.8665 478.746 56.8665ZM479.365 55.2573C481.057 55.2573 482.666 54.6796 484.193 53.5242C485.761 52.3688 487.184 50.7596 488.463 48.6964C489.784 46.592 490.918 44.1987 491.868 41.5166C492.693 39.2472 493.105 37.1427 493.105 35.2034C493.105 33.5116 492.755 32.1499 492.053 31.1183C491.352 30.0455 490.279 29.5091 488.835 29.5091C487.184 29.5091 485.534 30.1486 483.883 31.4278C482.274 32.6657 480.788 34.2956 479.427 36.3175C478.106 38.3394 477.033 40.5057 476.208 42.8164C475.424 45.0859 475.032 47.2728 475.032 49.3773C475.032 51.3166 475.424 52.7815 476.208 53.7718C476.992 54.7621 478.044 55.2573 479.365 55.2573ZM513.72 56.8665C511.533 56.8665 509.738 56.392 508.335 55.4429C506.974 54.4526 505.963 53.1735 505.303 51.6055C504.684 49.9962 504.374 48.2838 504.374 46.4682C504.374 43.9099 504.869 41.5373 505.86 39.3503C506.85 37.1221 508.17 35.1621 509.821 33.4703C511.471 31.7373 513.266 30.3962 515.206 29.4472C517.186 28.4981 519.167 28.0236 521.148 28.0236C523.087 28.0236 524.614 28.5187 525.728 29.5091C526.883 30.4581 527.461 31.7373 527.461 33.3465C527.42 35.7811 526.264 37.6998 523.995 39.1027C521.767 40.4644 518.754 41.3516 514.958 41.7642L509.759 42.2594C509.264 44.1575 509.016 45.9731 509.016 47.7061C509.016 48.9027 509.181 50.0787 509.511 51.2341C509.883 52.3895 510.481 53.3592 511.306 54.1432C512.132 54.8859 513.204 55.2573 514.525 55.2573C516.134 55.2573 517.599 54.7415 518.919 53.7099C520.281 52.6371 521.354 51.5436 522.138 50.4295L523.19 51.296C522.241 52.6164 521.003 53.8749 519.476 55.0716C517.95 56.2682 516.031 56.8665 513.72 56.8665ZM521.086 29.2615C519.724 29.2615 518.342 29.7979 516.939 30.8707C515.536 31.9436 514.236 33.3672 513.039 35.1415C511.843 36.9158 510.894 38.8552 510.192 40.9596L513.658 40.4644C515.845 40.1343 517.599 39.6392 518.919 38.9789C520.281 38.3187 521.313 37.576 522.014 36.7507C522.716 35.9255 523.19 35.1415 523.438 34.3987C523.685 33.6147 523.809 32.9545 523.809 32.4181C523.809 31.4691 523.603 30.7057 523.19 30.128C522.778 29.5503 522.076 29.2615 521.086 29.2615ZM565.896 56.8665C564.451 56.8665 563.42 56.5364 562.801 55.8762C562.223 55.216 561.934 54.3288 561.934 53.2147C561.934 52.4307 562.037 51.5848 562.244 50.6771C562.491 49.728 562.801 48.7171 563.172 47.6442L568.186 33.9655C568.475 33.1402 568.619 32.3975 568.619 31.7373C568.619 30.912 568.392 30.3343 567.938 30.0042C567.484 29.6328 566.927 29.4472 566.267 29.4472C565.235 29.4472 564.142 29.7566 562.987 30.3756C561.831 30.9945 560.717 31.7992 559.644 32.7895C558.613 33.7798 557.684 34.8733 556.859 36.0699C556.034 37.2253 555.415 38.36 555.002 39.4741L548.998 56H544.418L552.464 33.9655C552.753 33.1402 552.898 32.4181 552.898 31.7992C552.898 30.9739 552.671 30.3756 552.217 30.0042C551.763 29.6328 551.206 29.4472 550.546 29.4472C549.432 29.4472 548.276 29.7979 547.08 30.4994C545.924 31.1596 544.81 32.0467 543.737 33.1608C542.664 34.2337 541.715 35.3891 540.89 36.6269C540.065 37.8236 539.446 38.9789 539.033 40.0931L533.277 56H528.821L536.496 34.7082C536.908 33.6354 537.115 32.7688 537.115 32.1086C537.115 31.0771 536.702 30.52 535.877 30.4375C535.051 30.3137 534.061 30.2518 532.906 30.2518L533.401 28.7663L542.499 28.5806L540.704 34.5844C542.025 32.8514 543.613 31.304 545.47 29.9423C547.327 28.5806 549.411 27.8998 551.722 27.8998C553.702 27.8998 555.043 28.3331 555.745 29.1996C556.488 30.0248 556.859 31.0771 556.859 32.3562C556.859 32.9339 556.797 33.5735 556.673 34.2749C557.952 32.5832 559.5 31.0977 561.315 29.8185C563.172 28.5394 565.215 27.8998 567.443 27.8998C569.382 27.8998 570.744 28.3331 571.528 29.1996C572.353 30.0248 572.766 31.0564 572.766 32.2943C572.766 33.3672 572.56 34.44 572.147 35.5128L567.01 49.6248C566.803 50.2851 566.618 50.9246 566.453 51.5436C566.329 52.1625 566.267 52.7196 566.267 53.2147C566.267 53.6686 566.349 54.0606 566.515 54.3907C566.68 54.6796 566.968 54.824 567.381 54.824C568.083 54.824 568.846 54.3907 569.671 53.5242C570.538 52.6164 571.239 51.7086 571.776 50.8008L572.89 51.5436C572.106 52.8227 571.115 54.04 569.919 55.1954C568.763 56.3095 567.422 56.8665 565.896 56.8665ZM582.317 56.8665C581.038 56.8665 580.131 56.5571 579.594 55.9381C579.099 55.3192 578.851 54.4939 578.851 53.4623C578.851 52.8021 578.934 52.1006 579.099 51.3579C579.264 50.5739 579.491 49.7899 579.78 49.0059L585.165 34.5225C585.495 33.6147 585.66 32.8926 585.66 32.3562C585.66 31.6135 585.433 31.0977 584.979 30.8088C584.525 30.52 583.927 30.3549 583.184 30.3137C582.483 30.2724 581.74 30.2518 580.956 30.2518L581.389 28.7663L591.416 28.5806L583.617 50.7389C583.452 51.3579 583.308 51.9149 583.184 52.4101C583.06 52.864 582.998 53.256 582.998 53.5861C582.998 54.4114 583.328 54.824 583.989 54.824C584.896 54.824 585.784 54.3495 586.65 53.4004C587.517 52.4514 588.218 51.5229 588.755 50.6152L589.869 51.3579C589.085 52.6371 588.074 53.8749 586.836 55.0716C585.598 56.2682 584.092 56.8665 582.317 56.8665ZM590.983 21.7722C589.992 21.7722 589.167 21.4421 588.507 20.7819C587.888 20.1217 587.579 19.3377 587.579 18.4299C587.579 17.5634 587.888 16.8 588.507 16.1398C589.167 15.4796 589.992 15.1495 590.983 15.1495C591.849 15.1495 592.592 15.4796 593.211 16.1398C593.871 16.8 594.201 17.5634 594.201 18.4299C594.201 19.3377 593.871 20.1217 593.211 20.7819C592.592 21.4421 591.849 21.7722 590.983 21.7722ZM605.794 56.8665C602.452 56.8665 599.914 55.8968 598.181 53.9575C596.489 51.9768 595.643 49.4598 595.643 46.4063C595.643 43.8893 596.159 41.5166 597.191 39.2884C598.263 37.0602 599.687 35.1002 601.461 33.4084C603.236 31.6754 605.196 30.3343 607.341 29.3853C609.528 28.3949 611.736 27.8998 613.964 27.8998C616.027 27.8998 617.533 28.1886 618.482 28.7663C619.473 29.3027 620.112 29.9423 620.401 30.6851C620.731 31.3865 620.896 32.0055 620.896 32.5419C620.896 33.3259 620.669 34.0686 620.215 34.7701C619.762 35.4303 619.06 35.7604 618.111 35.7604C617.327 35.7604 616.708 35.5335 616.254 35.0796C615.8 34.6257 615.573 34.0274 615.573 33.2846C615.573 31.9642 615.532 30.9739 615.45 30.3137C615.367 29.6122 614.748 29.2615 613.593 29.2615C611.901 29.2615 610.271 29.7979 608.703 30.8707C607.135 31.9436 605.732 33.3672 604.494 35.1415C603.256 36.8745 602.266 38.7726 601.523 40.8358C600.822 42.8577 600.471 44.8589 600.471 46.8396C600.471 49.1503 600.966 51.1516 601.957 52.8434C602.947 54.4939 604.577 55.3192 606.846 55.3192C607.837 55.3192 608.847 55.0922 609.879 54.6383C610.911 54.1844 611.839 53.5448 612.664 52.7196C613.572 51.8531 614.377 50.8215 615.078 49.6248L616.192 50.4295C615.285 52.2038 613.964 53.7305 612.231 55.0097C610.539 56.2476 608.394 56.8665 605.794 56.8665ZM226.488 114.79V74.6305H232.882V68.3084H254.147V74.6305H260.613V95.9676H254.147V102.29H234.965V114.79H226.488ZM234.965 93.3095H252.064V77.2887H234.965V93.3095ZM267.951 114.79V68.3084H276.429V114.79H267.951ZM290.201 114.79V108.612H283.807V87.1311H290.201V80.8808H311.466V87.1311H318.004V105.882H324.398V114.79H315.849V108.612H311.466V114.79H290.201ZM292.285 105.882H309.383V89.7892H292.285V105.882ZM334.471 127.363V121.112H328.077V112.204H336.554V118.454H353.725V108.612H334.471V102.29H328.077V80.8808H336.554V99.6316H353.725V80.8808H362.202V121.112H355.808V127.363H334.471ZM377.338 127.363V121.112H370.944V112.204H379.421V118.454H396.591V108.612H377.338V102.29H370.944V87.1311H377.338V80.8808H398.675V87.1311H405.069V121.112H398.675V127.363H377.338ZM379.421 99.6316H396.591V89.7892H379.421V99.6316ZM413.81 114.79V87.1311H420.204V80.8808H441.47V87.1311H447.935V95.9676H439.386V89.7892H422.288V114.79H413.81ZM460.896 114.79V108.612H454.502V87.1311H460.896V80.8808H482.162V87.1311H488.627V108.612H482.162V114.79H460.896ZM462.98 105.882H480.078V89.7892H462.98V105.882ZM503.763 114.79V108.612H497.369V80.8808H505.846V105.882H522.945V80.8808H531.494V108.612H525.028V114.79H503.763ZM540.236 114.79V80.8808H567.895V87.1311H574.361V114.79H565.812V89.7892H548.713V114.79H540.236ZM588.093 114.79V108.612H581.699V87.1311H588.093V80.8808H607.347V68.3084H615.896V108.612H609.359V114.79H588.093ZM590.177 105.882H607.275V89.7892H590.177V105.882Z" fill="black"/>
<path d="M190.079 67.4472C190.079 80.4983 179.975 92.6758 162.826 101.679C145.747 110.646 122.048 116.237 95.7895 116.237C69.5308 116.237 45.8324 110.646 28.7533 101.679C11.6041 92.6758 1.5 80.4983 1.5 67.4472C1.5 54.3961 11.6041 42.2186 28.7533 33.2153C45.8324 24.2487 69.5308 18.6577 95.7895 18.6577C122.048 18.6577 145.747 24.2487 162.826 33.2153C179.975 42.2186 190.079 54.3961 190.079 67.4472Z" stroke="black" stroke-width="3"/>
<path d="M69.2987 90.9225L69.7939 89.3751L71.0937 89.2513C73.2393 89.045 74.8486 88.4054 75.9215 87.3326C76.9943 86.2598 77.964 85.0838 78.8305 83.8046L105.074 45.925L106.436 46.7916V83.6808C106.436 84.7949 106.518 85.744 106.683 86.528C106.848 87.312 107.24 87.9309 107.859 88.3848C108.519 88.7974 109.592 89.0863 111.078 89.2513L112.254 89.3751L111.759 90.9225L102.784 90.7368L93.809 90.9225L94.3042 89.3751L95.604 89.2513C97.4196 89.045 98.8225 88.6118 99.8128 87.9516C100.844 87.2501 101.36 85.7852 101.36 83.557V74.768H87.1863L80.873 83.8665C79.9652 85.1869 79.5113 86.2391 79.5113 87.0231C79.5113 88.261 80.8524 89.0038 83.5345 89.2513L84.7105 89.3751L84.2153 90.9225L76.9118 90.7368L69.2987 90.9225ZM88.3004 73.1587H101.36V54.2189L88.3004 73.1587Z" fill="black"/>
<path d="M37.9217 59.1555C36.693 56.5285 36.4175 54.177 37.0955 52.1008C37.7734 49.9823 39.0657 48.4993 40.9724 47.6519C42.9214 46.8045 44.8916 46.8045 46.883 47.6519C48.9168 48.457 50.3998 50.173 51.3319 52.7999C51.798 54.1134 52.137 55.6388 52.3488 57.3759C52.5607 59.0708 52.7937 60.7232 53.0479 62.3333C53.3445 63.901 53.8106 65.2145 54.4461 66.2737C55.1241 67.2906 56.1621 67.799 57.5604 67.799C58.9586 67.799 59.9967 67.2906 60.6746 66.2737C61.3525 65.2145 61.8186 63.901 62.0728 62.3333C62.3694 60.7232 62.6024 59.0708 62.7719 57.3759C62.9838 55.6388 63.3227 54.1134 63.7888 52.7999C64.7633 50.173 66.2463 48.457 68.2377 47.6519C70.2291 46.8045 72.1993 46.8045 74.1484 47.6519C76.055 48.4993 77.3473 49.9823 78.0253 52.1008C78.7032 54.177 78.4278 56.5285 77.199 59.1555C76.5635 60.5113 75.7161 61.8036 74.6568 63.0324C73.6399 64.2188 72.5171 65.4475 71.2884 66.7186C70.0596 67.9897 68.8309 69.4091 67.6021 70.9768C66.3734 72.5022 65.2506 74.2605 64.2337 76.2519V87.1199C64.2337 88.8571 63.5981 90.2977 62.327 91.4417C61.0559 92.5857 59.467 93.1577 57.5604 93.1577C55.6961 93.1577 54.1072 92.5857 52.7937 91.4417C51.5226 90.2977 50.887 88.8571 50.887 87.1199V76.2519C49.9125 74.2605 48.8109 72.5022 47.5821 70.9768C46.3534 69.4091 45.1247 67.9897 43.8959 66.7186C42.6672 65.4475 41.5232 64.2188 40.4639 63.0324C39.4047 61.8036 38.5573 60.5113 37.9217 59.1555Z" fill="black"/>
<path d="M121.119 90.7375V50.5778H127.513V44.2557H148.778V50.5778H155.244V71.9149H148.778V78.237H129.597V90.7375H121.119ZM129.597 69.2567H146.695V53.2359H129.597V69.2567Z" fill="black"/>
</svg>
